<?xml version="1.0" standalone="no"?>
<!DOCTYPE svg PUBLIC "-//W3C//DTD SVG 20010904//EN"
 "http://www.w3.org/TR/2001/REC-SVG-20010904/DTD/svg10.dtd">
<svg version="1.0" xmlns="http://www.w3.org/2000/svg"
 width="256.000000pt" height="256.000000pt" viewBox="0 0 256.000000 256.000000"
 preserveAspectRatio="xMidYMid meet">

<g transform="translate(0.000000,256.000000) scale(0.100000,-0.100000)"
fill="#000000" stroke="none">
<path d="M0 1280 l0 -1280 1280 0 1280 0 0 1280 0 1280 -1280 0 -1280 0 0
-1280z m1495 988 c364 -56 680 -339 776 -698 20 -73 23 -110 24 -260 0 -195
-13 -262 -79 -405 -109 -235 -321 -437 -531 -504 -172 -55 -411 -64 -583 -21
-46 11 -89 17 -95 13 -7 -3 -9 -2 -4 2 4 5 -28 25 -71 45 -94 44 -175 95 -234
147 -40 35 -41 35 -13 4 17 -18 64 -55 105 -83 92 -61 102 -71 32 -31 -141 79
-287 236 -362 388 -22 45 -52 126 -67 181 -24 89 -26 116 -26 274 0 205 15
277 88 425 125 252 359 442 629 509 135 34 254 38 411 14z"/>
<path d="M1133 2150 c-162 -42 -298 -119 -412 -232 -68 -67 -129 -148 -111
-148 6 0 -2 -23 -16 -52 -15 -29 -38 -82 -51 -117 -30 -80 -34 -86 -43 -71
-16 26 -35 -97 -35 -230 1 -110 5 -150 23 -215 91 -319 342 -558 657 -626 101
-21 347 -15 344 9 -4 24 7 33 59 48 85 24 195 78 267 129 65 46 85 54 85 33 0
-19 97 80 140 142 51 75 75 125 118 243 36 100 37 105 37 252 0 146 -1 152
-34 240 -66 175 -124 267 -238 376 -119 115 -261 191 -423 225 -95 20 -279 17
-367 -6z m355 -167 c31 -14 75 -46 99 -70 24 -24 49 -41 55 -37 5 4 19 27 30
51 11 25 23 41 27 37 8 -9 34 -274 28 -280 -1 -2 -65 7 -142 20 -135 22 -139
23 -115 38 14 9 37 22 53 29 15 7 27 15 27 19 0 12 -75 78 -107 94 -53 27
-114 31 -174 11 -64 -22 -134 -83 -150 -133 -6 -20 -18 -52 -26 -69 -29 -63
-29 -63 237 -63 l240 0 0 -49 c0 -27 3 -57 6 -65 5 -12 2 -15 -9 -10 -9 3 -20
19 -26 35 -14 40 -48 50 -155 47 l-91 -3 -5 -93 c-3 -51 -3 -97 -2 -102 5 -13
149 -13 157 0 3 6 15 10 25 10 12 0 22 9 26 24 4 16 11 23 20 19 21 -8 20
-170 -1 -170 -8 0 -15 8 -15 18 0 10 -10 25 -22 33 -31 19 -166 30 -184 15
-21 -17 -20 -189 1 -189 8 0 15 -6 15 -14 0 -12 15 -13 78 -9 42 3 91 11 109
19 17 8 36 14 42 14 15 0 34 39 27 56 -3 8 -2 14 2 14 19 -1 44 -32 69 -86 25
-53 28 -70 28 -164 0 -99 -2 -109 -34 -172 -38 -76 -101 -140 -165 -169 -35
-15 -64 -18 -159 -17 -63 2 -114 5 -111 9 2 3 -15 15 -38 25 -23 10 -63 40
-88 66 -42 43 -74 62 -68 41 1 -5 -6 -24 -17 -43 l-19 -35 -7 40 c-4 22 -8 65
-9 95 0 30 -5 72 -9 94 -10 40 -5 70 10 61 4 -3 6 -12 3 -19 -4 -9 25 -19 103
-35 155 -33 154 -32 94 -61 -34 -15 -51 -29 -49 -39 4 -22 97 -89 138 -101 55
-15 110 -13 110 5 0 16 100 68 132 69 36 2 98 128 98 201 0 19 -5 45 -11 58
-11 23 -15 24 -167 31 -276 11 -342 18 -342 32 0 9 12 14 30 14 17 0 44 7 60
15 29 15 30 18 30 89 0 62 -3 76 -22 92 -12 10 -18 13 -14 7 17 -30 -15 -9
-58 37 -59 63 -83 117 -98 218 -10 67 -9 89 5 147 27 110 97 200 195 249 83
43 209 42 300 -1z m-354 -1323 c54 -31 57 -41 4 -14 -38 19 -118 93 -118 108
0 6 14 -6 31 -27 17 -21 54 -51 83 -67z"/>
<path d="M1090 1574 c0 -33 50 -126 64 -121 6 2 12 26 14 54 3 45 0 53 -24 72
-36 28 -54 27 -54 -5z"/>
</g>
</svg>
